<svg xmlns="http://www.w3.org/2000/svg" viewBox="0 0 40.22 13"><defs><style>.cls-1{fill:#fff;}</style></defs><title>logo_visa</title><g id="Layer_2" data-name="Layer 2"><g id="Layer_2-2" data-name="Layer 2"><g id="g4155"><g id="g4161"><path id="path4163" class="cls-1" d="M19.91.28l-2.7,12.56H14L16.68.28ZM33.59,8.39,35.3,3.67l1,4.72Zm3.6,4.45h3L37.6.28H34.82a1.48,1.48,0,0,0-1.39.9L28.59,12.85H32L32.68,11h4.17ZM28.7,8.74c0-3.32-4.59-3.5-4.55-5,0-.45.44-.9,1.38-1.05a6.14,6.14,0,0,1,3.21.56l.57-2.7a8.77,8.77,0,0,0-3-.56c-3.22,0-5.47,1.7-5.49,4.15C20.78,6,22.4,7,23.63,7.58s1.69,1,1.68,1.56c0,.85-1,1.22-1.95,1.23A6.79,6.79,0,0,1,20,9.58l-.59,2.76a9.91,9.91,0,0,0,3.6.67c3.41,0,5.65-1.68,5.66-4.3M15.27.28,10,12.85H6.57L4,2.82a1.38,1.38,0,0,0-.77-1.09A13.6,13.6,0,0,0,0,.65L.08.29H5.6A1.51,1.51,0,0,1,7.1,1.57L8.47,8.84,11.85.29Z"/></g></g></g></g></svg>