<svg width="36" height="51" viewBox="0 0 36 51" xmlns="http://www.w3.org/2000/svg"><title>ICON_NEX</title><g fill="none" fill-rule="evenodd"><path fill="#6595F5" d="M25.752.255L19.25 3.218l9.475 4.97 6.505-2.964L25.756.256"/><path fill="#1962F4" d="M28.898 28.31l-9.476-4.97L19.25 3.22l9.475 4.97"/><path fill="#0816A0" d="M20.057 36.797l9.476 4.968-19.56-21.653L.5 15.142"/><path fill="#1425CE" d="M10.235 50.555l6.58-2.997-.147-16.982L10 23.19"/><path fill="#1962F4" d="M.76 45.586l9.475 4.97L10 23.19.524 18.22M.498 15.142l9.476 4.97-.03-3.37-9.476-4.97"/><path fill="#6595F5" d="M.468 11.773l9.476 4.97 5.99-2.73-9.477-4.97"/><path fill="#1425CE" d="M28.725 8.187l.173 20.123-12.965-14.296-5.99 2.728.03 3.37 19.56 21.653 5.99-2.727-.293-33.814"/></g></svg>