<svg width="151" height="50" viewBox="0 0 151 50" xmlns="http://www.w3.org/2000/svg"><title>NEX Logo</title><path d="M55.316 49.422V0h37.318v10.773H67.157v8.423h20.05v10.77h-20.05v8.684h26.276v10.772H55.316zM0 9.43L11.682 24.6v24.82H0V9.43zM33.36 0h11.55v49.42H34.27L0 4.926V0h10.632L33.36 29.41V0zm98.852 24.007l-15.484 21.106-3.122 4.254h-15.21l18.776-25.034L99.357 0h15.275l10.437 14.253L134.543 0h15.278l-17.61 24.008zm-5.95 12.837l7.683-10.47 16.837 22.993H135.57l-9.307-12.523z" fill="#0052F3" fill-rule="evenodd"/></svg>